<mxfile host="Electron" agent="Mozilla/5.0 (X11; Linux x86_64) AppleWebKit/537.36 (KHTML, like Gecko) draw.io/24.7.5 Chrome/126.0.6478.183 Electron/31.3.0 Safari/537.36" version="24.7.5">
  <diagram name="Page-1" id="e7e014a7-5840-1c2e-5031-d8a46d1fe8dd">
    <mxGraphModel dx="1447" dy="660" grid="1" gridSize="10" guides="1" tooltips="1" connect="1" arrows="1" fold="1" page="1" pageScale="0.9" pageWidth="1169" pageHeight="826" background="none" math="0" shadow="0">
      <root>
        <mxCell id="0" />
        <mxCell id="1" parent="0" />
        <mxCell id="3" value="USER" style="swimlane;whiteSpace=wrap" parent="1" vertex="1">
          <mxGeometry x="444.5" y="128" width="280" height="902" as="geometry" />
        </mxCell>
        <mxCell id="C0ixefQLAs7Yww9wn_K1-48" style="edgeStyle=orthogonalEdgeStyle;rounded=0;orthogonalLoop=1;jettySize=auto;html=1;" edge="1" parent="3" source="13" target="15">
          <mxGeometry relative="1" as="geometry" />
        </mxCell>
        <mxCell id="13" value="" style="ellipse;shape=startState;fillColor=#000000;strokeColor=#ff0000;" parent="3" vertex="1">
          <mxGeometry x="125" y="40" width="30" height="30" as="geometry" />
        </mxCell>
        <mxCell id="C0ixefQLAs7Yww9wn_K1-64" style="edgeStyle=orthogonalEdgeStyle;rounded=0;orthogonalLoop=1;jettySize=auto;html=1;" edge="1" parent="3" source="15" target="C0ixefQLAs7Yww9wn_K1-63">
          <mxGeometry relative="1" as="geometry" />
        </mxCell>
        <mxCell id="15" value="Enter build name" style="rounded=1;" parent="3" vertex="1">
          <mxGeometry x="85" y="102" width="110" height="50" as="geometry" />
        </mxCell>
        <mxCell id="C0ixefQLAs7Yww9wn_K1-51" style="edgeStyle=orthogonalEdgeStyle;rounded=0;orthogonalLoop=1;jettySize=auto;html=1;" edge="1" parent="3" source="C0ixefQLAs7Yww9wn_K1-45" target="C0ixefQLAs7Yww9wn_K1-47">
          <mxGeometry relative="1" as="geometry" />
        </mxCell>
        <mxCell id="C0ixefQLAs7Yww9wn_K1-45" value="Enter build &#xa;description" style="rounded=1;" vertex="1" parent="3">
          <mxGeometry x="85" y="330" width="110" height="50" as="geometry" />
        </mxCell>
        <mxCell id="C0ixefQLAs7Yww9wn_K1-54" style="edgeStyle=orthogonalEdgeStyle;rounded=0;orthogonalLoop=1;jettySize=auto;html=1;" edge="1" parent="3" source="C0ixefQLAs7Yww9wn_K1-47" target="C0ixefQLAs7Yww9wn_K1-53">
          <mxGeometry relative="1" as="geometry" />
        </mxCell>
        <mxCell id="C0ixefQLAs7Yww9wn_K1-47" value="Enter build &#xa;stats" style="rounded=1;" vertex="1" parent="3">
          <mxGeometry x="85" y="412" width="110" height="50" as="geometry" />
        </mxCell>
        <mxCell id="C0ixefQLAs7Yww9wn_K1-53" value="Enter build steps" style="rounded=1;" vertex="1" parent="3">
          <mxGeometry x="85" y="482" width="110" height="50" as="geometry" />
        </mxCell>
        <mxCell id="C0ixefQLAs7Yww9wn_K1-65" style="edgeStyle=orthogonalEdgeStyle;rounded=0;orthogonalLoop=1;jettySize=auto;html=1;" edge="1" parent="3" source="C0ixefQLAs7Yww9wn_K1-63" target="C0ixefQLAs7Yww9wn_K1-45">
          <mxGeometry relative="1" as="geometry" />
        </mxCell>
        <mxCell id="C0ixefQLAs7Yww9wn_K1-67" value="No" style="edgeLabel;html=1;align=center;verticalAlign=middle;resizable=0;points=[];" vertex="1" connectable="0" parent="C0ixefQLAs7Yww9wn_K1-65">
          <mxGeometry x="-0.149" relative="1" as="geometry">
            <mxPoint as="offset" />
          </mxGeometry>
        </mxCell>
        <mxCell id="C0ixefQLAs7Yww9wn_K1-63" value="Enter&amp;nbsp;&lt;div&gt;Thumbnail?&lt;/div&gt;" style="rhombus;whiteSpace=wrap;html=1;" vertex="1" parent="3">
          <mxGeometry x="90" y="192" width="100" height="70" as="geometry" />
        </mxCell>
        <mxCell id="4" value="WEB" style="swimlane;whiteSpace=wrap" parent="1" vertex="1">
          <mxGeometry x="724.5" y="128" width="280" height="902" as="geometry" />
        </mxCell>
        <mxCell id="C0ixefQLAs7Yww9wn_K1-90" style="edgeStyle=orthogonalEdgeStyle;rounded=0;orthogonalLoop=1;jettySize=auto;html=1;" edge="1" parent="4" source="C0ixefQLAs7Yww9wn_K1-68" target="C0ixefQLAs7Yww9wn_K1-88">
          <mxGeometry relative="1" as="geometry" />
        </mxCell>
        <mxCell id="C0ixefQLAs7Yww9wn_K1-93" value="Yes" style="edgeLabel;html=1;align=center;verticalAlign=middle;resizable=0;points=[];" vertex="1" connectable="0" parent="C0ixefQLAs7Yww9wn_K1-90">
          <mxGeometry x="-0.6999" y="-3" relative="1" as="geometry">
            <mxPoint x="3" as="offset" />
          </mxGeometry>
        </mxCell>
        <mxCell id="C0ixefQLAs7Yww9wn_K1-68" value="Thumbnail&lt;div&gt;&amp;lt;400kb?&lt;/div&gt;" style="rhombus;whiteSpace=wrap;html=1;" vertex="1" parent="4">
          <mxGeometry x="90" y="188" width="100" height="78" as="geometry" />
        </mxCell>
        <mxCell id="C0ixefQLAs7Yww9wn_K1-77" value="Inputs are&amp;nbsp;&lt;div&gt;valid?&lt;/div&gt;" style="rhombus;whiteSpace=wrap;html=1;" vertex="1" parent="4">
          <mxGeometry x="90" y="468" width="100" height="78" as="geometry" />
        </mxCell>
        <mxCell id="C0ixefQLAs7Yww9wn_K1-88" value="&lt;div&gt;Format&lt;/div&gt;&lt;div&gt;jpg, jpeg,&amp;nbsp;&lt;/div&gt;&lt;div&gt;or png?&lt;/div&gt;" style="rhombus;whiteSpace=wrap;html=1;" vertex="1" parent="4">
          <mxGeometry x="90" y="352" width="100" height="78" as="geometry" />
        </mxCell>
        <mxCell id="C0ixefQLAs7Yww9wn_K1-57" value="SERVER" style="swimlane;whiteSpace=wrap;startSize=23;" vertex="1" parent="1">
          <mxGeometry x="1004.5" y="128" width="280" height="902" as="geometry" />
        </mxCell>
        <mxCell id="C0ixefQLAs7Yww9wn_K1-103" style="edgeStyle=orthogonalEdgeStyle;rounded=0;orthogonalLoop=1;jettySize=auto;html=1;" edge="1" parent="C0ixefQLAs7Yww9wn_K1-57" source="C0ixefQLAs7Yww9wn_K1-98" target="C0ixefQLAs7Yww9wn_K1-110">
          <mxGeometry relative="1" as="geometry">
            <mxPoint x="140" y="582" as="targetPoint" />
          </mxGeometry>
        </mxCell>
        <mxCell id="C0ixefQLAs7Yww9wn_K1-106" value="Yes" style="edgeLabel;html=1;align=center;verticalAlign=middle;resizable=0;points=[];" vertex="1" connectable="0" parent="C0ixefQLAs7Yww9wn_K1-103">
          <mxGeometry x="-0.4874" relative="1" as="geometry">
            <mxPoint as="offset" />
          </mxGeometry>
        </mxCell>
        <mxCell id="C0ixefQLAs7Yww9wn_K1-98" value="Inputs are&amp;nbsp;&lt;div&gt;valid?&lt;/div&gt;" style="rhombus;whiteSpace=wrap;html=1;" vertex="1" parent="C0ixefQLAs7Yww9wn_K1-57">
          <mxGeometry x="90" y="468" width="100" height="78" as="geometry" />
        </mxCell>
        <mxCell id="C0ixefQLAs7Yww9wn_K1-115" style="edgeStyle=orthogonalEdgeStyle;rounded=0;orthogonalLoop=1;jettySize=auto;html=1;entryX=0;entryY=0.5;entryDx=0;entryDy=0;exitX=0;exitY=0.5;exitDx=0;exitDy=0;" edge="1" parent="C0ixefQLAs7Yww9wn_K1-57" source="C0ixefQLAs7Yww9wn_K1-110" target="C0ixefQLAs7Yww9wn_K1-111">
          <mxGeometry relative="1" as="geometry" />
        </mxCell>
        <mxCell id="C0ixefQLAs7Yww9wn_K1-118" value="No" style="edgeLabel;html=1;align=center;verticalAlign=middle;resizable=0;points=[];" vertex="1" connectable="0" parent="C0ixefQLAs7Yww9wn_K1-115">
          <mxGeometry x="-0.5762" y="-1" relative="1" as="geometry">
            <mxPoint as="offset" />
          </mxGeometry>
        </mxCell>
        <mxCell id="C0ixefQLAs7Yww9wn_K1-117" style="edgeStyle=orthogonalEdgeStyle;rounded=0;orthogonalLoop=1;jettySize=auto;html=1;exitX=1;exitY=0.5;exitDx=0;exitDy=0;" edge="1" parent="C0ixefQLAs7Yww9wn_K1-57" source="C0ixefQLAs7Yww9wn_K1-110" target="C0ixefQLAs7Yww9wn_K1-114">
          <mxGeometry relative="1" as="geometry" />
        </mxCell>
        <mxCell id="C0ixefQLAs7Yww9wn_K1-119" value="Yes" style="edgeLabel;html=1;align=center;verticalAlign=middle;resizable=0;points=[];" vertex="1" connectable="0" parent="C0ixefQLAs7Yww9wn_K1-117">
          <mxGeometry x="0.1774" y="1" relative="1" as="geometry">
            <mxPoint as="offset" />
          </mxGeometry>
        </mxCell>
        <mxCell id="C0ixefQLAs7Yww9wn_K1-110" value="Input has&amp;nbsp;&lt;div&gt;thumbnail?&lt;/div&gt;" style="rhombus;whiteSpace=wrap;html=1;" vertex="1" parent="C0ixefQLAs7Yww9wn_K1-57">
          <mxGeometry x="90" y="592" width="100" height="78" as="geometry" />
        </mxCell>
        <mxCell id="C0ixefQLAs7Yww9wn_K1-123" style="edgeStyle=orthogonalEdgeStyle;rounded=0;orthogonalLoop=1;jettySize=auto;html=1;" edge="1" parent="C0ixefQLAs7Yww9wn_K1-57" source="C0ixefQLAs7Yww9wn_K1-111" target="C0ixefQLAs7Yww9wn_K1-121">
          <mxGeometry relative="1" as="geometry" />
        </mxCell>
        <mxCell id="C0ixefQLAs7Yww9wn_K1-111" value="Save data to &#xa;database" style="rounded=1;" vertex="1" parent="C0ixefQLAs7Yww9wn_K1-57">
          <mxGeometry x="85" y="772" width="110" height="50" as="geometry" />
        </mxCell>
        <mxCell id="C0ixefQLAs7Yww9wn_K1-120" style="edgeStyle=orthogonalEdgeStyle;rounded=0;orthogonalLoop=1;jettySize=auto;html=1;entryX=1;entryY=0.5;entryDx=0;entryDy=0;" edge="1" parent="C0ixefQLAs7Yww9wn_K1-57" source="C0ixefQLAs7Yww9wn_K1-114" target="C0ixefQLAs7Yww9wn_K1-111">
          <mxGeometry relative="1" as="geometry" />
        </mxCell>
        <mxCell id="C0ixefQLAs7Yww9wn_K1-114" value="Save thumbnail&#xa;to storage bucket" style="rounded=1;" vertex="1" parent="C0ixefQLAs7Yww9wn_K1-57">
          <mxGeometry x="165.5" y="682" width="110" height="50" as="geometry" />
        </mxCell>
        <mxCell id="C0ixefQLAs7Yww9wn_K1-121" value="" style="ellipse;html=1;shape=endState;fillColor=#000000;strokeColor=#ff0000;" vertex="1" parent="C0ixefQLAs7Yww9wn_K1-57">
          <mxGeometry x="125" y="862" width="30" height="30" as="geometry" />
        </mxCell>
        <mxCell id="C0ixefQLAs7Yww9wn_K1-70" style="edgeStyle=orthogonalEdgeStyle;rounded=0;orthogonalLoop=1;jettySize=auto;html=1;entryX=0;entryY=0.5;entryDx=0;entryDy=0;" edge="1" parent="1" source="C0ixefQLAs7Yww9wn_K1-63" target="C0ixefQLAs7Yww9wn_K1-68">
          <mxGeometry relative="1" as="geometry" />
        </mxCell>
        <mxCell id="C0ixefQLAs7Yww9wn_K1-85" value="Yes" style="edgeLabel;html=1;align=center;verticalAlign=middle;resizable=0;points=[];" vertex="1" connectable="0" parent="C0ixefQLAs7Yww9wn_K1-70">
          <mxGeometry x="-0.8355" y="2" relative="1" as="geometry">
            <mxPoint as="offset" />
          </mxGeometry>
        </mxCell>
        <mxCell id="C0ixefQLAs7Yww9wn_K1-78" style="edgeStyle=orthogonalEdgeStyle;rounded=0;orthogonalLoop=1;jettySize=auto;html=1;" edge="1" parent="1" source="C0ixefQLAs7Yww9wn_K1-53" target="C0ixefQLAs7Yww9wn_K1-77">
          <mxGeometry relative="1" as="geometry" />
        </mxCell>
        <mxCell id="C0ixefQLAs7Yww9wn_K1-81" style="edgeStyle=orthogonalEdgeStyle;rounded=0;orthogonalLoop=1;jettySize=auto;html=1;" edge="1" parent="1" source="C0ixefQLAs7Yww9wn_K1-77" target="C0ixefQLAs7Yww9wn_K1-98">
          <mxGeometry relative="1" as="geometry">
            <mxPoint x="1089.5" y="635" as="targetPoint" />
          </mxGeometry>
        </mxCell>
        <mxCell id="C0ixefQLAs7Yww9wn_K1-84" value="Yes" style="edgeLabel;html=1;align=center;verticalAlign=middle;resizable=0;points=[];" vertex="1" connectable="0" parent="C0ixefQLAs7Yww9wn_K1-81">
          <mxGeometry x="-0.6575" y="-1" relative="1" as="geometry">
            <mxPoint y="-1" as="offset" />
          </mxGeometry>
        </mxCell>
        <mxCell id="C0ixefQLAs7Yww9wn_K1-82" style="edgeStyle=orthogonalEdgeStyle;rounded=0;orthogonalLoop=1;jettySize=auto;html=1;entryX=0;entryY=0.5;entryDx=0;entryDy=0;exitX=0.5;exitY=1;exitDx=0;exitDy=0;" edge="1" parent="1" source="C0ixefQLAs7Yww9wn_K1-77" target="15">
          <mxGeometry relative="1" as="geometry">
            <Array as="points">
              <mxPoint x="865" y="720" />
              <mxPoint x="490" y="720" />
              <mxPoint x="490" y="255" />
            </Array>
          </mxGeometry>
        </mxCell>
        <mxCell id="C0ixefQLAs7Yww9wn_K1-83" value="No" style="edgeLabel;html=1;align=center;verticalAlign=middle;resizable=0;points=[];" vertex="1" connectable="0" parent="C0ixefQLAs7Yww9wn_K1-82">
          <mxGeometry x="-0.9668" relative="1" as="geometry">
            <mxPoint as="offset" />
          </mxGeometry>
        </mxCell>
        <mxCell id="C0ixefQLAs7Yww9wn_K1-91" style="edgeStyle=orthogonalEdgeStyle;rounded=0;orthogonalLoop=1;jettySize=auto;html=1;" edge="1" parent="1" source="C0ixefQLAs7Yww9wn_K1-88" target="C0ixefQLAs7Yww9wn_K1-45">
          <mxGeometry relative="1" as="geometry" />
        </mxCell>
        <mxCell id="C0ixefQLAs7Yww9wn_K1-97" value="Yes" style="edgeLabel;html=1;align=center;verticalAlign=middle;resizable=0;points=[];" vertex="1" connectable="0" parent="C0ixefQLAs7Yww9wn_K1-91">
          <mxGeometry x="-0.8009" y="1" relative="1" as="geometry">
            <mxPoint as="offset" />
          </mxGeometry>
        </mxCell>
        <mxCell id="C0ixefQLAs7Yww9wn_K1-92" style="edgeStyle=orthogonalEdgeStyle;rounded=0;orthogonalLoop=1;jettySize=auto;html=1;entryX=1;entryY=0.5;entryDx=0;entryDy=0;" edge="1" parent="1" source="C0ixefQLAs7Yww9wn_K1-68" target="15">
          <mxGeometry relative="1" as="geometry">
            <Array as="points">
              <mxPoint x="950" y="355" />
              <mxPoint x="950" y="255" />
            </Array>
          </mxGeometry>
        </mxCell>
        <mxCell id="C0ixefQLAs7Yww9wn_K1-94" value="No" style="edgeLabel;html=1;align=center;verticalAlign=middle;resizable=0;points=[];" vertex="1" connectable="0" parent="C0ixefQLAs7Yww9wn_K1-92">
          <mxGeometry x="-0.9552" y="1" relative="1" as="geometry">
            <mxPoint y="1" as="offset" />
          </mxGeometry>
        </mxCell>
        <mxCell id="C0ixefQLAs7Yww9wn_K1-95" style="edgeStyle=orthogonalEdgeStyle;rounded=0;orthogonalLoop=1;jettySize=auto;html=1;entryX=1;entryY=0.5;entryDx=0;entryDy=0;" edge="1" parent="1" source="C0ixefQLAs7Yww9wn_K1-88" target="15">
          <mxGeometry relative="1" as="geometry">
            <Array as="points">
              <mxPoint x="950" y="519" />
              <mxPoint x="950" y="255" />
            </Array>
          </mxGeometry>
        </mxCell>
        <mxCell id="C0ixefQLAs7Yww9wn_K1-96" value="No" style="edgeLabel;html=1;align=center;verticalAlign=middle;resizable=0;points=[];" vertex="1" connectable="0" parent="C0ixefQLAs7Yww9wn_K1-95">
          <mxGeometry x="-0.9607" y="1" relative="1" as="geometry">
            <mxPoint as="offset" />
          </mxGeometry>
        </mxCell>
        <mxCell id="C0ixefQLAs7Yww9wn_K1-99" style="edgeStyle=orthogonalEdgeStyle;rounded=0;orthogonalLoop=1;jettySize=auto;html=1;entryX=1;entryY=0.5;entryDx=0;entryDy=0;" edge="1" parent="1" source="C0ixefQLAs7Yww9wn_K1-98" target="15">
          <mxGeometry relative="1" as="geometry">
            <Array as="points">
              <mxPoint x="1230" y="635" />
              <mxPoint x="1230" y="255" />
            </Array>
          </mxGeometry>
        </mxCell>
        <mxCell id="C0ixefQLAs7Yww9wn_K1-100" value="No" style="edgeLabel;html=1;align=center;verticalAlign=middle;resizable=0;points=[];" vertex="1" connectable="0" parent="C0ixefQLAs7Yww9wn_K1-99">
          <mxGeometry x="-0.9737" y="2" relative="1" as="geometry">
            <mxPoint x="3" y="2" as="offset" />
          </mxGeometry>
        </mxCell>
      </root>
    </mxGraphModel>
  </diagram>
</mxfile>
